<svg fill="#000000" xmlns="http://www.w3.org/2000/svg"  viewBox="0 0 48 48" width="48px" height="48px"><path d="M 12.5 4 C 10.019 4 8 6.019 8 8.5 L 8 39.5 C 8 41.981 10.019 44 12.5 44 L 25.640625 44 C 24.785625 43.111 24.055516 42.103 23.478516 41 L 12.5 41 C 11.673 41 11 40.327 11 39.5 L 11 8.5 C 11 7.673 11.673 7 12.5 7 L 24 7 L 24 15.5 C 24 17.981 26.019 20 28.5 20 L 37 20 L 37 22.169922 C 38.045 22.331922 39.053 22.606906 40 23.003906 L 40 18.5 C 40 18.0855 39.831922 17.710828 39.560547 17.439453 L 26.560547 4.4394531 C 26.289172 4.1680781 25.9145 4 25.5 4 L 12.5 4 z M 27 9.1210938 L 34.878906 17 L 28.5 17 C 27.673 17 27 16.327 27 15.5 L 27 9.1210938 z M 35 24 C 28.935 24 24 28.935 24 35 C 24 41.065 28.935 46 35 46 C 41.065 46 46 41.065 46 35 C 46 28.935 41.065 24 35 24 z M 35 27 C 36.665 27 38.210187 27.512719 39.492188 28.386719 L 28.386719 39.492188 C 27.512719 38.210187 27 36.665 27 35 C 27 30.589 30.589 27 35 27 z M 41.613281 30.507812 C 42.487281 31.789813 43 33.335 43 35 C 43 39.411 39.411 43 35 43 C 33.335 43 31.789813 42.487281 30.507812 41.613281 L 41.613281 30.507812 z"/></svg>