<svg fill="#000000" xmlns="http://www.w3.org/2000/svg"  viewBox="0 0 48 48" width="48px" height="48px"><path d="M 36 1.5 C 35.413 1.5 34.838344 1.5495313 34.277344 1.6445312 L 33.931641 3.0761719 C 33.394641 5.3011719 31.105156 6.6236094 28.910156 5.9746094 L 27.705078 5.6171875 C 26.981078 6.5501875 26.401 7.6108125 26 8.7578125 L 26.894531 9.6171875 C 28.529531 11.191187 28.529531 13.808812 26.894531 15.382812 L 26 16.244141 C 26.401 17.391141 26.980078 18.448813 27.705078 19.382812 L 28.910156 19.027344 C 31.105156 18.378344 33.394641 19.700781 33.931641 21.925781 L 34.277344 23.357422 C 34.838344 23.451422 35.414 23.5 36 23.5 C 36.587 23.5 37.161656 23.450469 37.722656 23.355469 L 38.068359 21.923828 C 38.605359 19.698828 40.894844 18.376391 43.089844 19.025391 L 44.294922 19.382812 C 45.018922 18.449813 45.599 17.389188 46 16.242188 L 45.105469 15.382812 C 43.470469 13.809812 43.470469 11.190187 45.105469 9.6171875 L 46 8.7578125 C 45.599 7.6108125 45.019922 6.5511875 44.294922 5.6171875 L 43.089844 5.9746094 C 40.894844 6.6236094 38.605359 5.3011719 38.068359 3.0761719 L 37.722656 1.6445312 C 37.161656 1.5495312 36.587 1.5 36 1.5 z M 16.5 5 C 14.019 5 12 7.019 12 9.5 L 12 11 L 10.5 11 C 6.916 11 4 13.916 4 17.5 L 4 31.5 C 4 33.981 6.019 36 8.5 36 L 12 36 L 12 38.5 C 12 40.967501 14.032499 43 16.5 43 L 31.5 43 C 33.967501 43 36 40.967501 36 38.5 L 36 36 L 39.5 36 C 41.981 36 44 33.981 44 31.5 L 44 22.732422 C 43.088 23.446422 42.084 24.048953 41 24.501953 L 41 31.5 C 41 32.327 40.327 33 39.5 33 L 36 33 L 36 29.5 C 36 27.032499 33.967501 25 31.5 25 L 16.5 25 C 14.032499 25 12 27.032499 12 29.5 L 12 33 L 8.5 33 C 7.673 33 7 32.327 7 31.5 L 7 17.5 C 7 15.57 8.57 14 10.5 14 L 23.09375 14 C 23.03675 13.507 23 13.008 23 12.5 C 23 11.992 23.03675 11.493 23.09375 11 L 15 11 L 15 9.5 C 15 8.673 15.673 8 16.5 8 L 23.816406 8 C 24.213406 6.926 24.741578 5.919 25.392578 5 L 16.5 5 z M 36 9.5 C 37.657 9.5 39 10.843 39 12.5 C 39 14.157 37.657 15.5 36 15.5 C 34.343 15.5 33 14.157 33 12.5 C 33 10.843 34.343 9.5 36 9.5 z M 16.5 28 L 31.5 28 C 32.346499 28 33 28.653501 33 29.5 L 33 38.5 C 33 39.346499 32.346499 40 31.5 40 L 16.5 40 C 15.653501 40 15 39.346499 15 38.5 L 15 29.5 C 15 28.653501 15.653501 28 16.5 28 z"/></svg>