<svg fill="#000000" xmlns="http://www.w3.org/2000/svg"  viewBox="0 0 48 48" width="48px" height="48px"><path d="M 23.976562 3.9785156 A 1.50015 1.50015 0 0 0 22.5 5.5 L 22.5 21.878906 L 18.060547 17.439453 A 1.50015 1.50015 0 1 0 15.939453 19.560547 L 22.939453 26.560547 A 1.50015 1.50015 0 0 0 25.060547 26.560547 L 32.060547 19.560547 A 1.50015 1.50015 0 1 0 29.939453 17.439453 L 25.5 21.878906 L 25.5 5.5 A 1.50015 1.50015 0 0 0 23.976562 3.9785156 z M 13.5 4 C 10.480226 4 8 6.4802259 8 9.5 L 8 38.5 C 8 41.519774 10.480226 44 13.5 44 L 34.5 44 C 37.519774 44 40 41.519774 40 38.5 L 40 9.5 C 40 6.4802259 37.519774 4 34.5 4 L 28.5 4 L 28 4 L 28 7 L 28.5 7 L 34.5 7 C 35.898226 7 37 8.1017741 37 9.5 L 37 31.613281 C 36.247721 31.224692 35.399198 31 34.5 31 L 13.5 31 C 12.600802 31 11.752279 31.224692 11 31.613281 L 11 9.5 C 11 8.1017741 12.101774 7 13.5 7 L 20 7 L 20 4 L 13.5 4 z M 13.5 34 L 34.5 34 C 35.898226 34 37 35.101774 37 36.5 L 37 38.5 C 37 39.898226 35.898226 41 34.5 41 L 13.5 41 C 12.101774 41 11 39.898226 11 38.5 L 11 36.5 C 11 35.101774 12.101774 34 13.5 34 z M 14.5 36 A 1.5 1.5 0 0 0 14.5 39 A 1.5 1.5 0 0 0 14.5 36 z"/></svg>