<svg fill="#000000" xmlns="http://www.w3.org/2000/svg"  viewBox="0 0 50 50" width="50px" height="50px"><path d="M 25 2 C 12.309288 2 2 12.309297 2 25 C 2 37.690703 12.309288 48 25 48 C 37.690712 48 48 37.690703 48 25 C 48 12.309297 37.690712 2 25 2 z M 25 4 C 26.699589 4 28.349685 4.2059578 29.931641 4.5859375 L 28.376953 9.3808594 C 28.206953 9.9068594 28.494531 10.470625 29.019531 10.640625 C 29.544531 10.811625 30.108297 10.523047 30.279297 9.9980469 L 31.851562 5.1464844 C 35.111873 6.2693869 37.994071 8.1809283 40.302734 10.640625 L 35.730469 13.962891 C 35.283469 14.287891 35.184766 14.912375 35.509766 15.359375 C 35.834766 15.806375 36.45925 15.905078 36.90625 15.580078 L 41.605469 12.167969 C 43.772896 14.970057 45.258712 18.324634 45.783203 22 L 39 22 C 38.448 22 38 22.448 38 23 C 38 23.552 38.448 24 39 24 L 45.974609 24 C 45.990101 24.331427 46 24.664697 46 25 C 46 36.609825 36.609833 46 25 46 C 13.390167 46 4 36.609825 4 25 C 4 24.664697 4.0098985 24.331427 4.0253906 24 L 11 24 C 11.552 24 12 23.552 12 23 C 12 22.448 11.552 22 11 22 L 4.2167969 22 C 4.741288 18.324634 6.227104 14.970057 8.3945312 12.167969 L 13.09375 15.580078 C 13.54075 15.905078 14.165234 15.806375 14.490234 15.359375 C 14.815234 14.912375 14.716531 14.287891 14.269531 13.962891 L 9.6972656 10.640625 C 12.005516 8.1813684 14.886888 6.2694648 18.146484 5.1464844 L 19.720703 9.9980469 C 19.891703 10.523047 20.454516 10.810625 20.978516 10.640625 C 21.504516 10.469625 21.791094 9.9058594 21.621094 9.3808594 L 20.066406 4.5859375 C 21.648923 4.2056704 23.299749 4 25 4 z M 13 19 L 21.136719 24.021484 C 21.286001 24.638005 21.559921 25.229276 22.001953 25.726562 C 22.685226 26.495244 23.75 27 25 27 C 26.25 27 27.314774 26.495244 27.998047 25.726562 C 28.681319 24.957881 29 23.972222 29 23 C 29 22.027778 28.681319 21.042118 27.998047 20.273438 C 27.314774 19.504756 26.25 19 25 19 C 24.114242 19 23.329128 19.262384 22.699219 19.683594 L 13 19 z M 25 21 C 25.749999 21 26.185226 21.245244 26.501953 21.601562 C 26.81868 21.957881 27 22.472222 27 23 C 27 23.527778 26.81868 24.042118 26.501953 24.398438 C 26.185226 24.754756 25.749999 25 25 25 C 24.250001 25 23.814774 24.754756 23.498047 24.398438 C 23.18132 24.042119 23 23.527778 23 23 C 23 22.472222 23.18132 21.957882 23.498047 21.601562 C 23.814774 21.245244 24.250001 21 25 21 z M 24 28.988281 C 22.320267 28.988281 20.543092 29.423591 19.052734 30.373047 C 17.711699 31.227374 16.69978 32.609831 16.285156 34.330078 C 15.837659 34.581336 14.988281 35.155075 14.988281 36.5 C 14.988281 37.069564 15.274958 37.544759 15.601562 37.96875 L 15.105469 39.339844 C 14.632107 40.648669 15.736605 42.011719 17.085938 42.011719 L 19.917969 42.011719 A 1.0111011 1.0111011 0 0 0 20.867188 41.34375 L 21.708984 39.011719 L 26.291016 39.011719 L 27.132812 41.34375 A 1.0111011 1.0111011 0 0 0 28.082031 42.011719 L 30.914062 42.011719 C 32.263396 42.011719 33.367893 40.648669 32.894531 39.339844 L 32.726562 38.875 C 34.111861 38.550574 35.31246 37.634842 35.964844 36.330078 L 35.964844 36.328125 L 36.625 35.011719 L 38 35.011719 A 1.0111011 1.0111011 0 0 0 39.011719 34 L 39.011719 31.439453 C 39.011719 30.097623 37.902377 28.988281 36.560547 28.988281 L 35.123047 28.988281 C 34.003501 28.988281 33.018645 29.758625 32.746094 30.84375 A 1.0111011 1.0111011 0 0 0 32.746094 30.847656 A 1.0111011 1.0111011 0 0 0 32.744141 30.849609 C 32.52958 31.706166 31.937352 32.380139 31.175781 32.728516 C 30.644295 31.744412 29.888085 30.937332 28.982422 30.369141 C 27.473444 29.422444 25.679733 28.988281 24 28.988281 z M 24 31.011719 C 25.320267 31.011719 26.787181 31.378728 27.908203 32.082031 C 29.029225 32.785334 29.802797 33.757607 29.998047 35.140625 A 1.0111011 1.0111011 0 0 0 30.548828 35.904297 C 30.548828 35.904297 30.988281 36.174 30.988281 36.5 C 30.988281 36.785928 30.785928 36.988281 30.5 36.988281 L 27.154297 36.988281 A 1.0111011 1.0111011 0 0 0 26.832031 36.988281 L 21.158203 36.988281 A 1.0111011 1.0111011 0 0 0 20.851562 36.988281 L 17.5 36.988281 C 17.214072 36.988281 17.011719 36.785928 17.011719 36.5 C 17.011719 36.22792 17.503906 35.917969 17.503906 35.917969 A 1.0111011 1.0111011 0 0 0 18.082031 35.140625 C 18.278368 33.749908 19.039029 32.77867 20.138672 32.078125 C 21.238315 31.37758 22.679733 31.011719 24 31.011719 z M 35.123047 31.011719 L 36.560547 31.011719 C 36.808717 31.011719 36.988281 31.191283 36.988281 31.439453 L 36.988281 32.988281 L 36 32.988281 A 1.0111011 1.0111011 0 0 0 35.095703 33.546875 L 34.15625 35.423828 A 1.0111011 1.0111011 0 0 0 34.15625 35.425781 C 33.895847 35.946988 33.485349 36.357674 32.996094 36.628906 C 32.999512 36.585312 33.011719 36.544737 33.011719 36.5 C 33.011719 35.431142 32.484452 34.861047 32.060547 34.541016 C 33.347656 33.934666 34.345937 32.783167 34.707031 31.337891 C 34.756481 31.141016 34.922592 31.011719 35.123047 31.011719 z M 17.390625 38.966797 C 17.432455 38.968897 17.457685 39.011719 17.5 39.011719 L 19.558594 39.011719 L 19.207031 39.988281 L 17.085938 39.988281 C 17.033868 39.988281 17.025695 39.994432 17.017578 40 L 17.390625 38.966797 z M 30.609375 38.966797 L 30.982422 40 C 30.974309 39.994433 30.966133 39.988281 30.914062 39.988281 L 28.792969 39.988281 L 28.441406 39.011719 L 30.5 39.011719 C 30.54231 39.011719 30.56754 38.968927 30.609375 38.966797 z"/></svg>