<svg fill="#000000" xmlns="http://www.w3.org/2000/svg"  viewBox="0 0 48 48" width="48px" height="48px"><path d="M 8.5 5 C 6.0324991 5 4 7.0324991 4 9.5 L 4 30.5 C 4 32.967501 6.0324991 35 8.5 35 L 17 35 L 17 40 L 13.5 40 A 1.50015 1.50015 0 1 0 13.5 43 L 18.253906 43 A 1.50015 1.50015 0 0 0 18.740234 43 L 29.253906 43 A 1.50015 1.50015 0 0 0 29.740234 43 L 34.5 43 A 1.50015 1.50015 0 1 0 34.5 40 L 31 40 L 31 35 L 39.5 35 C 41.967501 35 44 32.967501 44 30.5 L 44 9.5 C 44 7.0324991 41.967501 5 39.5 5 L 8.5 5 z M 8.5 8 L 39.5 8 C 40.346499 8 41 8.6535009 41 9.5 L 41 30.5 C 41 31.346499 40.346499 32 39.5 32 L 29.746094 32 A 1.50015 1.50015 0 0 0 29.259766 32 L 18.746094 32 A 1.50015 1.50015 0 0 0 18.259766 32 L 8.5 32 C 7.6535009 32 7 31.346499 7 30.5 L 7 9.5 C 7 8.6535009 7.6535009 8 8.5 8 z M 31.470703 13.986328 A 1.50015 1.50015 0 0 0 30.439453 14.439453 L 21.5 23.378906 L 17.560547 19.439453 A 1.50015 1.50015 0 1 0 15.439453 21.560547 L 20.439453 26.560547 A 1.50015 1.50015 0 0 0 22.560547 26.560547 L 32.560547 16.560547 A 1.50015 1.50015 0 0 0 31.470703 13.986328 z M 20 35 L 28 35 L 28 40 L 20 40 L 20 35 z"/></svg>