<svg fill="#000000" xmlns="http://www.w3.org/2000/svg"  viewBox="0 0 48 48" width="48px" height="48px"><path d="M 9.5 9 C 7.57 9 6 10.57 6 12.5 L 6 31.5 C 6 33.43 7.57 35 9.5 35 L 23.341797 35 C 23.718797 34.209 24.382219 33.579953 25.199219 33.251953 C 24.924219 32.865953 24.707484 32.441 24.521484 32 L 9.5 32 C 9.225 32 9 31.775 9 31.5 L 9 12.5 C 9 12.225 9.225 12 9.5 12 L 38.5 12 C 38.775 12 39 12.225 39 12.5 L 39 23.046875 C 40.555 23.271875 41.785609 24.511125 41.974609 26.078125 C 41.982609 26.070125 41.993 26.064641 42 26.056641 L 42 12.5 C 42 10.57 40.43 9 38.5 9 L 9.5 9 z M 33.476562 24.978516 A 1.50015 1.50015 0 0 0 32 26.5 L 32 27 C 32 27.628207 32.162074 28.216327 32.425781 28.748047 C 31.556178 29.278905 30.85723 30.056224 30.439453 30.994141 C 29.623416 30.962948 29 30.325604 29 29.5 L 29 28.5 A 1.50015 1.50015 0 0 0 27.476562 26.978516 A 1.50015 1.50015 0 0 0 26 28.5 L 26 29.5 C 26 31.796595 27.766623 33.694299 30 33.949219 L 30 35 L 26.5 35 A 1.50015 1.50015 0 1 0 26.5 38 L 30 38 L 30 39 C 30 39.017114 30.001809 39.033701 30.001953 39.050781 C 27.767662 39.304816 26 41.202744 26 43.5 L 26 44.5 A 1.50015 1.50015 0 1 0 29 44.5 L 29 43.5 C 29 42.653501 29.653501 42 30.5 42 L 30.810547 42 C 31.849748 43.790579 33.784407 45 36 45 C 37.603 45 39.108234 44.376188 40.240234 43.242188 C 40.615827 42.866926 40.929933 42.44707 41.189453 42 L 41.5 42 C 42.346499 42 43 42.653501 43 43.5 L 43 44.5 A 1.50015 1.50015 0 1 0 46 44.5 L 46 43.5 C 46 41.202084 44.231299 39.30393 41.996094 39.050781 C 41.996225 39.033731 41.998058 39.017072 41.998047 39 L 41.998047 38 L 45.5 38 A 1.50015 1.50015 0 1 0 45.5 35 L 41.998047 35 L 41.998047 33.949219 C 44.232338 33.695184 46 31.797256 46 29.5 L 46 28.5 A 1.50015 1.50015 0 0 0 44.476562 26.978516 A 1.50015 1.50015 0 0 0 43 28.5 L 43 29.5 C 43 30.326272 42.375605 30.963912 41.558594 30.994141 C 41.141051 30.05675 40.44314 29.278894 39.574219 28.748047 C 39.837926 28.216327 40 27.628207 40 27 L 40 26.5 A 1.50015 1.50015 0 1 0 37 26.5 L 37 27 C 37 27.570718 36.570718 28 36 28 C 35.429282 28 35 27.570718 35 27 L 35 26.5 A 1.50015 1.50015 0 0 0 33.476562 24.978516 z M 3.5 36 C 2.672 36 2 36.672 2 37.5 C 2 38.328 2.672 39 3.5 39 L 24.064453 39 C 23.411453 38.364 23 37.482 23 36.5 C 23 36.33 23.015062 36.164 23.039062 36 L 3.5 36 z"/></svg>