<svg fill="#000000" xmlns="http://www.w3.org/2000/svg"  viewBox="0 0 48 48" width="48px" height="48px"><path d="M 23.970703 6.9726562 A 2.0002 2.0002 0 0 0 22 9 L 22 28 A 2.0002 2.0002 0 1 0 26 28 L 26 9 A 2.0002 2.0002 0 0 0 23.970703 6.9726562 z M 18.044922 8.734375 A 2.0002 2.0002 0 0 0 17.511719 8.8007812 C 12.033345 10.181738 7.2352909 13.267559 3.7128906 17.457031 A 2.0003443 2.0003443 0 1 0 6.7753906 20.03125 C 9.7689904 16.470722 13.842655 13.850729 18.488281 12.679688 A 2.0002 2.0002 0 0 0 18.044922 8.734375 z M 29.894531 8.7363281 A 2.0002 2.0002 0 0 0 29.511719 12.679688 C 34.157284 13.850715 38.229765 16.470335 41.224609 20.03125 A 2.0003443 2.0003443 0 1 0 44.287109 17.457031 C 40.763954 13.26795 35.966716 10.181754 30.488281 8.8007812 A 2.0002 2.0002 0 0 0 29.894531 8.7363281 z M 17.990234 17.119141 A 2.0002 2.0002 0 0 0 17.269531 17.267578 C 14.115473 18.50563 11.390905 20.582836 9.3574219 23.21875 A 2.0003769 2.0003769 0 0 0 12.525391 25.662109 C 14.123907 23.590023 16.264527 21.960136 18.730469 20.992188 A 2.0002 2.0002 0 0 0 17.990234 17.119141 z M 29.949219 17.119141 A 2.0002 2.0002 0 0 0 29.269531 20.992188 C 31.735473 21.960135 33.876093 23.590023 35.474609 25.662109 A 2.0003769 2.0003769 0 1 0 38.642578 23.21875 C 36.609095 20.582836 33.884527 18.50563 30.730469 17.267578 A 2.0002 2.0002 0 0 0 29.949219 17.119141 z M 17.960938 26.470703 A 2.0002 2.0002 0 0 0 16.585938 27.076172 C 15.960688 27.70142 15.416115 28.404753 14.964844 29.167969 A 2.0002 2.0002 0 1 0 18.408203 31.203125 C 18.688932 30.728341 19.027311 30.291048 19.414062 29.904297 A 2.0002 2.0002 0 0 0 17.960938 26.470703 z M 29.980469 26.470703 A 2.0002 2.0002 0 0 0 28.583984 29.904297 C 28.972532 30.293614 29.31263 30.730219 29.591797 31.203125 A 2.0002556 2.0002556 0 1 0 33.037109 29.169922 C 32.584276 28.402828 32.037468 27.700808 31.416016 27.078125 A 2.0002 2.0002 0 0 0 29.980469 26.470703 z M 24 33 A 3 3 0 0 0 24 39 A 3 3 0 0 0 24 33 z"/></svg>