<svg fill="#000000" xmlns="http://www.w3.org/2000/svg"  viewBox="0 0 48 48" width="48px" height="48px"><path d="M 12.5 4 C 10.032499 4 8 6.0324991 8 8.5 L 8 39.5 C 8 41.967501 10.032499 44 12.5 44 L 35.5 44 C 37.967501 44 40 41.967501 40 39.5 L 40 18.5 A 1.50015 1.50015 0 0 0 39.560547 17.439453 L 39.544922 17.423828 L 26.560547 4.4394531 A 1.50015 1.50015 0 0 0 25.5 4 L 12.5 4 z M 12.5 7 L 24 7 L 24 15.5 C 24 17.967501 26.032499 20 28.5 20 L 37 20 L 37 39.5 C 37 40.346499 36.346499 41 35.5 41 L 12.5 41 C 11.653501 41 11 40.346499 11 39.5 L 11 8.5 C 11 7.6535009 11.653501 7 12.5 7 z M 27 9.1210938 L 34.878906 17 L 28.5 17 C 27.653501 17 27 16.346499 27 15.5 L 27 9.1210938 z M 20.539062 23 C 20.250225 22.992295 19.955109 23.06825 19.693359 23.234375 C 18.995359 23.679375 18.790375 24.605687 19.234375 25.304688 L 22.222656 30 L 19.234375 34.695312 C 18.790375 35.394312 18.995359 36.320625 19.693359 36.765625 C 19.943359 36.923625 20.222047 37 20.498047 37 C 20.993047 37 21.480625 36.754641 21.765625 36.306641 L 24 32.794922 L 26.234375 36.304688 C 26.521375 36.753688 27.006953 37 27.501953 37 C 27.777953 37 28.055687 36.924625 28.304688 36.765625 C 29.002687 36.320625 29.209625 35.392359 28.765625 34.693359 L 25.779297 30 L 28.765625 25.306641 C 29.209625 24.607641 29.002688 23.679375 28.304688 23.234375 C 27.607688 22.790375 26.680375 22.995313 26.234375 23.695312 L 24 27.205078 L 21.765625 23.693359 C 21.4875 23.255859 21.020459 23.012842 20.539062 23 z"/></svg>