<svg fill="#000000" xmlns="http://www.w3.org/2000/svg"  viewBox="0 0 48 48" width="48px" height="48px"><path d="M 12.5 4 C 10.032499 4 8 6.0324991 8 8.5 L 8 39.5 C 8 41.967501 10.032499 44 12.5 44 L 35.5 44 C 37.967501 44 40 41.967501 40 39.5 L 40 18.5 A 1.50015 1.50015 0 0 0 39.560547 17.439453 L 39.544922 17.423828 L 26.560547 4.4394531 A 1.50015 1.50015 0 0 0 25.5 4 L 12.5 4 z M 12.5 7 L 24 7 L 24 15.5 C 24 17.967501 26.032499 20 28.5 20 L 37 20 L 37 39.5 C 37 39.896515 36.852728 40.247226 36.613281 40.511719 L 26.835938 31.140625 C 26.048495 30.38684 25.02242 30.009743 23.998047 30.009766 C 22.973674 30.009788 21.951166 30.386416 21.164062 31.140625 L 11.384766 40.511719 C 11.145812 40.247324 11 39.896062 11 39.5 L 11 8.5 C 11 7.6535009 11.653501 7 12.5 7 z M 27 9.1210938 L 34.878906 17 L 28.5 17 C 27.653501 17 27 16.346499 27 15.5 L 27 9.1210938 z M 29.5 23 C 28.119 23 27 24.119 27 25.5 C 27 26.881 28.119 28 29.5 28 C 30.881 28 32 26.881 32 25.5 C 32 24.119 30.881 23 29.5 23 z M 24 32.992188 C 24.271746 32.992081 24.543161 33.097425 24.761719 33.306641 L 32.789062 41 L 15.210938 41 L 23.238281 33.306641 C 23.456179 33.097849 23.728254 32.992294 24 32.992188 z"/></svg>