<svg fill="#000000" xmlns="http://www.w3.org/2000/svg"  viewBox="0 0 48 48" width="48px" height="48px"><path d="M 12.5 4 C 10.032499 4 8 6.0324991 8 8.5 L 8 22.050781 C 6.8698775 22.287658 6 23.307501 6 24.5 L 6 35.5 C 6 36.692499 6.8698775 37.712342 8 37.949219 L 8 39.5 C 8 41.967501 10.032499 44 12.5 44 L 35.5 44 C 37.967501 44 40 41.967501 40 39.5 L 40 37.949219 C 41.130122 37.712342 42 36.692499 42 35.5 L 42 24.5 C 42 23.307501 41.130122 22.287658 40 22.050781 L 40 18.5 A 1.50015 1.50015 0 0 0 39.560547 17.439453 L 39.544922 17.423828 L 26.560547 4.4394531 A 1.50015 1.50015 0 0 0 25.5 4 L 12.5 4 z M 12.5 7 L 24 7 L 24 15.5 C 24 17.967501 26.032499 20 28.5 20 L 37 20 L 37 22 L 11 22 L 11 8.5 C 11 7.6535009 11.653501 7 12.5 7 z M 27 9.1210938 L 34.878906 17 L 28.5 17 C 27.653501 17 27 16.346499 27 15.5 L 27 9.1210938 z M 9 25 L 39 25 L 39 35 L 9 35 L 9 25 z M 16 26 C 15.448 26 15 26.448 15 27 L 15 33 C 15 33.552 15.448 34 16 34 C 16.552 34 17 33.552 17 33 L 17 32 L 18 32 C 19.654 32 21 30.654 21 29 C 21 27.346 19.654 26 18 26 L 16 26 z M 23 26 C 22.448 26 22 26.448 22 27 L 22 33 C 22 33.552 22.448 34 23 34 L 24 34 C 26.206 34 28 32.206 28 30 C 28 27.794 26.206 26 24 26 L 23 26 z M 30 26 C 29.448 26 29 26.448 29 27 L 29 33 C 29 33.552 29.448 34 30 34 C 30.552 34 31 33.552 31 33 L 31 31 L 32.5 31 C 33.052 31 33.5 30.552 33.5 30 C 33.5 29.448 33.052 29 32.5 29 L 31 29 L 31 28 L 33 28 C 33.552 28 34 27.552 34 27 C 34 26.448 33.552 26 33 26 L 30 26 z M 17 28 L 18 28 C 18.551 28 19 28.449 19 29 C 19 29.551 18.551 30 18 30 L 17 30 L 17 28 z M 24 28 C 25.103 28 26 28.897 26 30 C 26 31.103 25.103 32 24 32 L 24 28 z M 11 38 L 37 38 L 37 39.5 C 37 40.346499 36.346499 41 35.5 41 L 12.5 41 C 11.653501 41 11 40.346499 11 39.5 L 11 38 z"/></svg>