<svg fill="#000000" xmlns="http://www.w3.org/2000/svg"  viewBox="0 0 48 48" width="48px" height="48px"><path d="M 12.5 4 C 10.032499 4 8 6.0324991 8 8.5 L 8 22.050781 C 6.8698775 22.287658 6 23.307501 6 24.5 L 6 35.5 C 6 36.692499 6.8698775 37.712342 8 37.949219 L 8 39.5 C 8 41.967501 10.032499 44 12.5 44 L 35.5 44 C 37.967501 44 40 41.967501 40 39.5 L 40 37.949219 C 41.130122 37.712342 42 36.692499 42 35.5 L 42 24.5 C 42 23.307501 41.130122 22.287658 40 22.050781 L 40 18.5 A 1.50015 1.50015 0 0 0 39.560547 17.439453 L 39.544922 17.423828 L 26.560547 4.4394531 A 1.50015 1.50015 0 0 0 25.5 4 L 12.5 4 z M 12.5 7 L 24 7 L 24 15.5 C 24 17.967501 26.032499 20 28.5 20 L 37 20 L 37 22 L 11 22 L 11 8.5 C 11 7.6535009 11.653501 7 12.5 7 z M 27 9.1210938 L 34.878906 17 L 28.5 17 C 27.653501 17 27 16.346499 27 15.5 L 27 9.1210938 z M 9 25 L 39 25 L 39 35 L 9 35 L 9 25 z M 15 26 C 14.448 26 14 26.448 14 27 L 14 33 C 14 33.552 14.448 34 15 34 C 15.552 34 16 33.552 16 33 L 16 32 L 17 32 L 18.199219 33.599609 C 18.395219 33.861609 18.697953 34 19.001953 34 C 19.209953 34 19.419609 33.935781 19.599609 33.800781 C 20.041609 33.469781 20.131781 32.842391 19.800781 32.400391 L 18.947266 31.263672 C 19.586266 30.713672 20 29.908 20 29 C 20 27.346 18.654 26 17 26 L 15 26 z M 24.5 26 C 24.096 26 23.731172 26.243234 23.576172 26.615234 L 21.076172 32.615234 C 20.864172 33.125234 21.105234 33.710828 21.615234 33.923828 C 22.125234 34.135828 22.711828 33.893766 22.923828 33.384766 L 23.082031 33 L 25.917969 33 L 26.076172 33.384766 C 26.236172 33.768766 26.609 34 27 34 C 27.128 34 27.258766 33.974875 27.384766 33.921875 C 27.894766 33.709875 28.133875 33.123281 27.921875 32.613281 L 25.423828 26.615234 C 25.267828 26.243234 24.904 26 24.5 26 z M 30 26 C 29.448 26 29 26.448 29 27 L 29 33 C 29 33.552 29.448 34 30 34 C 30.552 34 31 33.552 31 33 L 31 32 L 32 32 L 33.199219 33.599609 C 33.395219 33.861609 33.697953 34 34.001953 34 C 34.209953 34 34.419609 33.935781 34.599609 33.800781 C 35.041609 33.469781 35.131781 32.842391 34.800781 32.400391 L 33.947266 31.263672 C 34.586266 30.713672 35 29.908 35 29 C 35 27.346 33.654 26 32 26 L 30 26 z M 16 28 L 17 28 C 17.551 28 18 28.449 18 29 C 18 29.551 17.551 30 17 30 L 16 30 L 16 28 z M 31 28 L 32 28 C 32.551 28 33 28.449 33 29 C 33 29.551 32.551 30 32 30 L 31 30 L 31 28 z M 24.5 29.599609 L 25.082031 31 L 23.917969 31 L 24.5 29.599609 z M 11 38 L 37 38 L 37 39.5 C 37 40.346499 36.346499 41 35.5 41 L 12.5 41 C 11.653501 41 11 40.346499 11 39.5 L 11 38 z"/></svg>