<svg fill="#000000" xmlns="http://www.w3.org/2000/svg"  viewBox="0 0 48 48" width="48px" height="48px"><path d="M 12.5 4 C 10.032499 4 8 6.0324991 8 8.5 L 8 39.5 C 8 41.967501 10.032499 44 12.5 44 L 35.5 44 C 37.967501 44 40 41.967501 40 39.5 L 40 18.5 A 1.50015 1.50015 0 0 0 39.560547 17.439453 L 39.544922 17.423828 L 26.560547 4.4394531 A 1.50015 1.50015 0 0 0 25.5 4 L 12.5 4 z M 12.5 7 L 24 7 L 24 15.5 C 24 17.967501 26.032499 20 28.5 20 L 37 20 L 37 39.5 C 37 40.346499 36.346499 41 35.5 41 L 12.5 41 C 11.653501 41 11 40.346499 11 39.5 L 11 8.5 C 11 7.6535009 11.653501 7 12.5 7 z M 27 9.1210938 L 34.878906 17 L 28.5 17 C 27.653501 17 27 16.346499 27 15.5 L 27 9.1210938 z M 17.25 23.982422 A 1.250125 1.250125 0 0 0 16.048828 25.597656 L 18.798828 35.097656 A 1.250125 1.250125 0 0 0 20 36 L 21 36 A 1.250125 1.250125 0 0 0 22.201172 35.097656 L 24 28.882812 L 25.798828 35.097656 A 1.250125 1.250125 0 0 0 27 36 L 28 36 A 1.250125 1.250125 0 0 0 29.201172 35.097656 L 31.951172 25.597656 A 1.2504715 1.2504715 0 1 0 29.548828 24.902344 L 27.5 31.982422 L 25.451172 24.902344 A 1.250125 1.250125 0 0 0 24.25 24 L 23.75 24 A 1.250125 1.250125 0 0 0 22.548828 24.902344 L 20.5 31.982422 L 18.451172 24.902344 A 1.250125 1.250125 0 0 0 17.25 23.982422 z"/></svg>