<svg fill="#000000" xmlns="http://www.w3.org/2000/svg"  viewBox="0 0 48 48" width="48px" height="48px"><path d="M 12.5 4 C 10.032499 4 8 6.0324991 8 8.5 L 8 22.050781 C 6.8698775 22.287658 6 23.307501 6 24.5 L 6 35.5 C 6 36.692499 6.8698775 37.712342 8 37.949219 L 8 39.5 C 8 41.967501 10.032499 44 12.5 44 L 35.5 44 C 37.967501 44 40 41.967501 40 39.5 L 40 37.949219 C 41.130122 37.712342 42 36.692499 42 35.5 L 42 24.5 C 42 23.307501 41.130122 22.287658 40 22.050781 L 40 18.5 A 1.50015 1.50015 0 0 0 39.560547 17.439453 L 39.544922 17.423828 L 26.560547 4.4394531 A 1.50015 1.50015 0 0 0 25.5 4 L 12.5 4 z M 12.5 7 L 24 7 L 24 15.5 C 24 17.967501 26.032499 20 28.5 20 L 37 20 L 37 22 L 11 22 L 11 8.5 C 11 7.6535009 11.653501 7 12.5 7 z M 27 9.1210938 L 34.878906 17 L 28.5 17 C 27.653501 17 27 16.346499 27 15.5 L 27 9.1210938 z M 9 25 L 39 25 L 39 35 L 9 35 L 9 25 z M 16 26 C 15.447 26 15 26.448 15 27 C 15 27.552 15.447 28 16 28 L 18.132812 28 L 15.167969 32.445312 C 14.963969 32.751312 14.943188 33.147656 15.117188 33.472656 C 15.291188 33.797656 15.631 34 16 34 L 20 34 C 20.553 34 21 33.552 21 33 C 21 32.448 20.553 32 20 32 L 17.867188 32 L 20.832031 27.554688 C 21.036031 27.248688 21.056813 26.852344 20.882812 26.527344 C 20.708812 26.202344 20.369 26 20 26 L 16 26 z M 24 26 C 23.448 26 23 26.448 23 27 L 23 33 C 23 33.552 23.448 34 24 34 C 24.552 34 25 33.552 25 33 L 25 27 C 25 26.448 24.552 26 24 26 z M 28 26 C 27.448 26 27 26.448 27 27 L 27 33 C 27 33.552 27.448 34 28 34 C 28.552 34 29 33.552 29 33 L 29 32 L 30 32 C 31.654 32 33 30.654 33 29 C 33 27.346 31.654 26 30 26 L 28 26 z M 29 28 L 30 28 C 30.551 28 31 28.449 31 29 C 31 29.551 30.551 30 30 30 L 29 30 L 29 28 z M 11 38 L 37 38 L 37 39.5 C 37 40.346499 36.346499 41 35.5 41 L 12.5 41 C 11.653501 41 11 40.346499 11 39.5 L 11 38 z"/></svg>