<svg fill="#000000" xmlns="http://www.w3.org/2000/svg"  viewBox="0 0 64 64" width="64px" height="64px"><path d="M 25.5 1 C 22.203 1 19.467719 3.612 19.011719 7 L 13 7 L 9.375 7 C 5.859 7 3 9.8713906 3 13.400391 L 3 56.599609 C 3 60.128609 5.859 63 9.375 63 L 41.625 63 C 45.141 63 48 60.128609 48 56.599609 L 48 13.400391 C 48 9.8713906 45.141 7 41.625 7 L 38 7 L 31.988281 7 C 31.532281 3.612 28.797 1 25.5 1 z M 25.5 3 C 28.012 3 30.056641 5.243 30.056641 8 C 30.056641 8.552 30.503641 9 31.056641 9 L 37 9 L 37 14 C 37 15.103 36.203656 16 35.222656 16 L 15.777344 16 C 14.797344 16 14 15.103 14 14 L 14 9 L 19.943359 9 C 20.496359 9 20.943359 8.552 20.943359 8 C 20.943359 5.243 22.988 3 25.5 3 z M 9.375 9 L 12 9 L 12 11 L 9.3457031 11 C 8.0527031 11 7 12.056516 7 13.353516 L 7 56.646484 C 7 57.943484 8.0527031 59 9.3457031 59 L 41.654297 59 C 42.947297 59 44 57.943484 44 56.646484 L 44 13.353516 C 44 12.056516 42.947297 11 41.654297 11 L 39 11 L 39 9 L 41.625 9 C 44.037 9 46 10.974391 46 13.400391 L 46 56.599609 C 46 59.025609 44.037 61 41.625 61 L 9.375 61 C 6.963 61 5 59.025609 5 56.599609 L 5 13.400391 C 5 10.974391 6.963 9 9.375 9 z M 9.3457031 13 L 12 13 L 12 14 C 12 16.206 13.694344 18 15.777344 18 L 35.222656 18 C 37.305656 18 39 16.206 39 14 L 39 13 L 41.654297 13 C 41.845297 13 42 13.158516 42 13.353516 L 42 56.646484 C 42 56.841484 41.845297 57 41.654297 57 L 9.3457031 57 C 9.1547031 57 9 56.841484 9 56.646484 L 9 13.353516 C 9 13.158516 9.1547031 13 9.3457031 13 z M 56 13 C 53.718 13 51.678063 14.530703 51.039062 16.720703 C 51.013062 16.811703 51 16.905 51 17 L 51 19 C 50.447 19 50 19.448 50 20 L 50 26 C 50 26.552 50.447 27 51 27 L 51 50 C 51 50.227 51.07675 50.447 51.21875 50.625 L 55.21875 55.625 C 55.40875 55.862 55.696 56 56 56 C 56.304 56 56.59125 55.862 56.78125 55.625 L 60.78125 50.625 C 60.92325 50.447 61 50.227 61 50 L 61 27 C 61.553 27 62 26.552 62 26 L 62 20 C 62 19.448 61.553 19 61 19 L 61 17 C 61 16.905 60.986937 16.811703 60.960938 16.720703 C 60.321937 14.530703 58.282 13 56 13 z M 56 15 C 57.354 15 58.569 15.878344 59 17.152344 L 59 19 L 53 19 L 53 17.152344 C 53.431 15.878344 54.646 15 56 15 z M 52 21 L 60 21 L 60 25 L 52 25 L 52 21 z M 14 25 C 13.447 25 13 25.448 13 26 C 13 26.552 13.447 27 14 27 L 22 27 C 22.553 27 23 26.552 23 26 C 23 25.448 22.553 25 22 25 L 14 25 z M 27 25 C 26.447 25 26 25.448 26 26 C 26 26.552 26.447 27 27 27 L 31 27 C 31.553 27 32 26.552 32 26 C 32 25.448 31.553 25 31 25 L 27 25 z M 53 27 L 59 27 L 59 48.382812 L 57 47.382812 L 57 42 C 57 41.448 56.553 41 56 41 C 55.447 41 55 41.448 55 42 L 55 47.382812 L 53 48.382812 L 53 27 z M 14 30 C 13.447 30 13 30.448 13 31 C 13 31.552 13.447 32 14 32 L 19 32 C 19.553 32 20 31.552 20 31 C 20 30.448 19.553 30 19 30 L 14 30 z M 24 30 C 23.447 30 23 30.448 23 31 C 23 31.552 23.447 32 24 32 L 28 32 C 28.553 32 29 31.552 29 31 C 29 30.448 28.553 30 28 30 L 24 30 z M 56 33 C 55.447 33 55 33.448 55 34 L 55 37 C 55 37.552 55.447 38 56 38 C 56.553 38 57 37.552 57 37 L 57 34 C 57 33.448 56.553 33 56 33 z M 14 35 C 13.447 35 13 35.448 13 36 C 13 36.552 13.447 37 14 37 L 24 37 C 24.553 37 25 36.552 25 36 C 25 35.448 24.553 35 24 35 L 14 35 z M 29 35 C 28.447 35 28 35.448 28 36 C 28 36.552 28.447 37 29 37 L 33 37 C 33.553 37 34 36.552 34 36 C 34 35.448 33.553 35 33 35 L 29 35 z M 56 49.117188 L 58.445312 50.341797 L 56 53.398438 L 53.554688 50.341797 L 56 49.117188 z M 13 50 C 12.447 50 12 50.448 12 51 L 12 53 C 12 53.552 12.447 54 13 54 C 13.553 54 14 53.552 14 53 L 14 51 C 14 50.448 13.553 50 13 50 z M 18 50 C 17.447 50 17 50.448 17 51 L 17 53 C 17 53.552 17.447 54 18 54 C 18.553 54 19 53.552 19 53 L 19 51 C 19 50.448 18.553 50 18 50 z M 23 50 C 22.447 50 22 50.448 22 51 L 22 53 C 22 53.552 22.447 54 23 54 C 23.553 54 24 53.552 24 53 L 24 51 C 24 50.448 23.553 50 23 50 z M 28 50 C 27.447 50 27 50.448 27 51 L 27 53 C 27 53.552 27.447 54 28 54 C 28.553 54 29 53.552 29 53 L 29 51 C 29 50.448 28.553 50 28 50 z M 33 50 C 32.447 50 32 50.448 32 51 L 32 53 C 32 53.552 32.447 54 33 54 C 33.553 54 34 53.552 34 53 L 34 51 C 34 50.448 33.553 50 33 50 z M 38 50 C 37.447 50 37 50.448 37 51 L 37 53 C 37 53.552 37.447 54 38 54 C 38.553 54 39 53.552 39 53 L 39 51 C 39 50.448 38.553 50 38 50 z"/></svg>