<svg fill="#000000" xmlns="http://www.w3.org/2000/svg"  viewBox="0 0 80 80" width="80px" height="80px"><path d="M 22.667969 11 A 1.0001 1.0001 0 0 0 21.773438 11.550781 L 9.9667969 35 L 8 35 A 1.0001 1.0001 0 0 0 7 36 L 7 65 A 1.0001 1.0001 0 0 0 8 66 L 72 66 A 1.0001 1.0001 0 0 0 73 65 L 73 36 A 1.0001 1.0001 0 0 0 72 35 L 70.033203 35 L 58.226562 11.550781 A 1.0001 1.0001 0 0 0 57.332031 11 L 57 11 L 23 11 L 22.667969 11 z M 24 13 L 56 13 L 56 17.832031 A 1.0001 1.0001 0 0 0 57 19 A 1.0001 1.0001 0 0 0 58 17.841797 L 58 15.548828 L 67.708984 34.832031 L 60.617188 34.832031 L 57.992188 28.126953 A 1.0001 1.0001 0 0 0 58 28 L 58 25.167969 A 1.0001 1.0001 0 0 0 57 24 A 1.0001 1.0001 0 0 0 56 25.158203 L 56 27 L 54 27 A 1.0001 1.0001 0 1 0 54 29 L 56.185547 29 L 58.466797 34.832031 L 21.533203 34.832031 L 23.814453 29 L 25 29 L 26 29 A 1.0001 1.0001 0 1 0 26 27 L 25 27 L 24 27 L 24 25.167969 A 1.0001 1.0001 0 0 0 23 24 A 1.0001 1.0001 0 0 0 22 25.158203 L 22 28 A 1.0001 1.0001 0 0 0 22.009766 28.125 L 19.382812 34.832031 L 12.291016 34.832031 L 22 15.548828 L 22 17.832031 A 1.0001 1.0001 0 0 0 23 19 A 1.0001 1.0001 0 0 0 24 17.841797 L 24 13 z M 23 20.5 L 22.199219 20.902344 L 22.041016 21.783203 L 22.652344 22.4375 L 23 22.5 L 23.800781 22.097656 L 23.958984 21.216797 L 23.347656 20.5625 L 23 20.5 z M 57 20.5 L 56.199219 20.902344 L 56.041016 21.783203 L 56.652344 22.4375 L 57 22.5 L 57.800781 22.097656 L 57.958984 21.216797 L 57.347656 20.5625 L 57 20.5 z M 30 27 L 29.199219 27.402344 L 29.041016 28.283203 L 29.652344 28.9375 L 30 29 L 30.800781 28.597656 L 30.958984 27.716797 L 30.347656 27.0625 L 30 27 z M 34 27 L 33.199219 27.402344 L 33.041016 28.283203 L 33.652344 28.9375 L 34 29 L 34.800781 28.597656 L 34.958984 27.716797 L 34.347656 27.0625 L 34 27 z M 38 27 L 37.199219 27.402344 L 37.041016 28.283203 L 37.652344 28.9375 L 38 29 L 38.800781 28.597656 L 38.958984 27.716797 L 38.347656 27.0625 L 38 27 z M 42 27 L 41.199219 27.402344 L 41.041016 28.283203 L 41.652344 28.9375 L 42 29 L 42.800781 28.597656 L 42.958984 27.716797 L 42.347656 27.0625 L 42 27 z M 46 27 L 45.199219 27.402344 L 45.041016 28.283203 L 45.652344 28.9375 L 46 29 L 46.800781 28.597656 L 46.958984 27.716797 L 46.347656 27.0625 L 46 27 z M 50 27 L 49.199219 27.402344 L 49.041016 28.283203 L 49.652344 28.9375 L 50 29 L 50.800781 28.597656 L 50.958984 27.716797 L 50.347656 27.0625 L 50 27 z M 9 37 L 20 37 L 60 37 L 71 37 L 71 64 L 9 64 L 9 37 z M 28 47.832031 A 2.667 2.667 0 0 0 27.224609 53.048828 C 27.732301 54.467832 29.082118 55.5 30.667969 55.5 L 49.333984 55.5 C 50.917615 55.5 52.266418 54.470082 52.775391 53.052734 A 2.667 2.667 0 0 0 52 47.832031 A 2.667 2.667 0 0 0 50.681641 52.816406 C 50.380549 53.230836 49.894844 53.5 49.333984 53.5 L 30.667969 53.5 C 30.106105 53.5 29.619214 53.231479 29.318359 52.816406 A 2.667 2.667 0 0 0 28 47.832031 z"/></svg>