<?xml version="1.0"?><svg fill="#000000" xmlns="http://www.w3.org/2000/svg"  viewBox="0 0 128 128" width="64px" height="64px">    <path d="M 14 1 C 6.8 1 1 6.8 1 14 L 1 110 C 1 111.7 2.3 113 4 113 L 16.099609 113 C 16.099609 113.3 16 113.7 16 114 C 16 116.6 16.799609 119 18.099609 121 L 14 121 C 12.3 121 11 122.3 11 124 C 11 125.7 12.3 127 14 127 L 104 127 C 111.2 127 117 121.2 117 114 C 117 113.7 117.00039 113.3 116.90039 113 L 124 113 C 125.7 113 127 111.7 127 110 L 127 107.30078 C 127 88.800781 121.1 49.5 109.5 30 L 111 30 C 112.7 30 114 28.7 114 27 C 114 25.3 112.7 24 111 24 L 94 24 C 92.3 24 91 25.3 91 27 L 91 45.300781 C 91 52.500781 96.8 58.300781 104 58.300781 L 114 58.300781 C 118.4 75.000781 121 94.2 121 107 L 114.90039 107 C 112.60039 103.4 108.6 101 104 101 C 99.4 101 95.399609 103.4 93.099609 107 L 87 107 L 87 34 C 87 32.3 85.7 31 84 31 C 82.3 31 81 32.3 81 34 L 81 107 L 39.900391 107 C 37.600391 103.4 33.6 101 29 101 C 24.4 101 20.399609 103.4 18.099609 107 L 7 107 L 7 14 C 7 10.1 10.1 7 14 7 L 61 7 L 61 14 C 61 21.2 66.8 27 74 27 L 83.599609 27 L 84 27 C 85.2 27 86.300781 26.199219 86.800781 25.199219 C 87.000781 24.799219 87.099609 24.4 87.099609 24 L 87.099609 23.599609 C 86.999609 17.599609 84.600391 11.999219 80.400391 7.6992188 C 75.900391 3.3992187 70.2 1 64 1 L 14 1 z M 67 7.3007812 C 70.4 7.9007812 73.5 9.5 76 12 C 78.5 14.5 80.099219 17.6 80.699219 21 L 74 21 C 70.1 21 67 17.9 67 14 L 67 7.3007812 z M 97 30 L 102.30078 30 C 106.20078 35.2 109.60078 43.200781 112.30078 52.300781 L 104 52.300781 C 100.1 52.300781 97 49.200781 97 45.300781 L 97 30 z M 22 41 C 20.3 41 19 42.3 19 44 C 19 45.7 20.3 47 22 47 L 66 47 C 67.7 47 69 45.7 69 44 C 69 42.3 67.7 41 66 41 L 22 41 z M 22 56 C 20.3 56 19 57.3 19 59 C 19 60.7 20.3 62 22 62 L 66 62 C 67.7 62 69 60.7 69 59 C 69 57.3 67.7 56 66 56 L 22 56 z M 22 71 C 20.3 71 19 72.3 19 74 C 19 75.7 20.3 77 22 77 L 50 77 C 51.7 77 53 75.7 53 74 C 53 72.3 51.7 71 50 71 L 22 71 z M 65.144531 71.042969 C 64.899219 71.032031 64.650391 71.049609 64.400391 71.099609 C 64.200391 71.099609 64.000781 71.200781 63.800781 71.300781 C 63.600781 71.400781 63.500781 71.499609 63.300781 71.599609 C 63.100781 71.699609 63.000781 71.8 62.800781 72 C 62.300781 72.4 62 73.2 62 74 C 62 74.8 62.300391 75.599609 62.900391 76.099609 C 63.500391 76.699609 64.2 77 65 77 C 65.8 77 66.599609 76.699609 67.099609 76.099609 C 67.699609 75.499609 68 74.8 68 74 C 68 73.2 67.699609 72.400391 67.099609 71.900391 C 66.574609 71.375391 65.880469 71.075781 65.144531 71.042969 z M 29 107 C 32.9 107 36 110.1 36 114 C 36 117.9 32.9 121 29 121 C 25.1 121 22 117.9 22 114 C 22 110.1 25.1 107 29 107 z M 104 107 C 107.9 107 111 110.1 111 114 C 111 117.9 107.9 121 104 121 C 100.1 121 97 117.9 97 114 C 97 110.1 100.1 107 104 107 z M 41.900391 113 L 91 113 C 91 113.3 90.900391 113.7 90.900391 114 C 90.900391 116.6 91.7 119 93 121 L 39.900391 121 C 41.200391 119 42 116.6 42 114 C 42 113.7 42.000391 113.3 41.900391 113 z M 4 120.97461 C 3.225 120.97461 2.4503906 121.25078 1.9003906 121.80078 C 1.8003906 121.90078 1.6 122.10078 1.5 122.30078 C 1.4 122.50078 1.2992187 122.60078 1.1992188 122.80078 C 1.0992187 123.00078 1.1 123.20039 1 123.40039 C 1 123.60039 0.90039062 123.8 0.90039062 124 C 0.90039062 124.8 1.2007813 125.59961 1.8007812 126.09961 C 2.4007812 126.69961 3.1003906 127 3.9003906 127 C 4.7003906 127 5.5 126.69961 6 126.09961 C 6.1 125.99961 6.3003906 125.79961 6.4003906 125.59961 C 6.5003906 125.39961 6.5992187 125.29961 6.6992188 125.09961 C 6.7992187 124.89961 6.8003906 124.7 6.9003906 124.5 C 6.9003906 124.3 7 124.10039 7 123.90039 C 7 123.70039 7.0003906 123.50078 6.9003906 123.30078 C 6.9003906 123.20078 6.8007813 123.00078 6.8007812 122.80078 C 6.7007813 122.60078 6.6 122.50078 6.5 122.30078 C 6.4 122.10078 6.2996094 122.00078 6.0996094 121.80078 C 5.5496094 121.25078 4.775 120.97461 4 120.97461 z"/></svg>