<?xml version="1.0" encoding="utf-8"?>
<svg width="64px" height="64px" viewBox="0 0 64 64" version="1.1" xmlns:xlink="http://www.w3.org/1999/xlink" xmlns="http://www.w3.org/2000/svg">
  <defs>
    <path d="M0 0L40.96 0L40.96 46.6097L0 46.6097L0 0Z" transform="translate(11.839844 8.6171875)" id="path_1" />
    <clipPath id="mask_1">
      <use xlink:href="#path_1" />
    </clipPath>
  </defs>
  <g id="logo-truck">
    <path d="M7.999 0L56.001 0Q56.1974 0 56.3935 0.00963514Q56.5896 0.0192703 56.785 0.0385174Q56.9805 0.0577644 57.1747 0.0865771Q57.3689 0.11539 57.5615 0.153699Q57.7541 0.192007 57.9446 0.23972Q58.1351 0.287433 58.323 0.344434Q58.5109 0.401436 58.6958 0.467589Q58.8807 0.533742 59.0621 0.608888Q59.2435 0.684033 59.421 0.76799Q59.5985 0.851946 59.7717 0.944512Q59.9449 1.03708 60.1133 1.13803Q60.2817 1.23898 60.445 1.34807Q60.6083 1.45717 60.766 1.57414Q60.9237 1.69112 61.0755 1.81569Q61.2273 1.94026 61.3728 2.07213Q61.5183 2.204 61.6571 2.34285Q61.796 2.4817 61.9279 2.6272Q62.0597 2.7727 62.1843 2.92449Q62.3089 3.07628 62.4258 3.234Q62.5428 3.39172 62.6519 3.55499Q62.761 3.71826 62.862 3.88669Q62.9629 4.05512 63.0555 4.2283Q63.148 4.40148 63.232 4.57899Q63.316 4.7565 63.3911 4.93791Q63.4663 5.11933 63.5324 5.30422Q63.5986 5.4891 63.6556 5.67701Q63.7126 5.86492 63.7603 6.0554Q63.808 6.24588 63.8463 6.43847Q63.8846 6.63106 63.9134 6.8253Q63.9422 7.01954 63.9615 7.21496Q63.9807 7.41038 63.9904 7.60651Q64 7.80264 64 7.999L64 56.001Q64 56.1974 63.9904 56.3935Q63.9807 56.5896 63.9615 56.785Q63.9422 56.9805 63.9134 57.1747Q63.8846 57.3689 63.8463 57.5615Q63.808 57.7541 63.7603 57.9446Q63.7126 58.1351 63.6556 58.323Q63.5986 58.5109 63.5324 58.6958Q63.4663 58.8807 63.3911 59.0621Q63.316 59.2435 63.232 59.421Q63.148 59.5985 63.0555 59.7717Q62.9629 59.9449 62.862 60.1133Q62.761 60.2817 62.6519 60.445Q62.5428 60.6083 62.4258 60.766Q62.3089 60.9237 62.1843 61.0755Q62.0597 61.2273 61.9279 61.3728Q61.796 61.5183 61.6571 61.6571Q61.5183 61.796 61.3728 61.9279Q61.2273 62.0597 61.0755 62.1843Q60.9237 62.3089 60.766 62.4258Q60.6083 62.5428 60.445 62.6519Q60.2817 62.761 60.1133 62.862Q59.9449 62.9629 59.7717 63.0555Q59.5985 63.148 59.421 63.232Q59.2435 63.316 59.0621 63.3911Q58.8807 63.4663 58.6958 63.5324Q58.5109 63.5986 58.323 63.6556Q58.1351 63.7126 57.9446 63.7603Q57.7541 63.808 57.5615 63.8463Q57.3689 63.8846 57.1747 63.9134Q56.9805 63.9422 56.785 63.9615Q56.5896 63.9807 56.3935 63.9904Q56.1974 64 56.001 64L7.999 64Q7.80264 64 7.60651 63.9904Q7.41038 63.9807 7.21496 63.9615Q7.01954 63.9422 6.8253 63.9134Q6.63106 63.8846 6.43847 63.8463Q6.24588 63.808 6.0554 63.7603Q5.86492 63.7126 5.67701 63.6556Q5.4891 63.5986 5.30422 63.5324Q5.11933 63.4663 4.93791 63.3911Q4.7565 63.316 4.57899 63.232Q4.40148 63.148 4.2283 63.0555Q4.05512 62.9629 3.88669 62.862Q3.71826 62.761 3.55499 62.6519Q3.39172 62.5428 3.234 62.4258Q3.07628 62.3089 2.92449 62.1843Q2.7727 62.0597 2.6272 61.9279Q2.4817 61.796 2.34285 61.6571Q2.204 61.5183 2.07213 61.3728Q1.94026 61.2273 1.81569 61.0755Q1.69112 60.9237 1.57414 60.766Q1.45717 60.6083 1.34807 60.445Q1.23898 60.2817 1.13803 60.1133Q1.03708 59.9449 0.944512 59.7717Q0.851946 59.5985 0.76799 59.421Q0.684033 59.2435 0.608888 59.0621Q0.533742 58.8807 0.467589 58.6958Q0.401436 58.5109 0.344434 58.323Q0.287433 58.1351 0.23972 57.9446Q0.192007 57.7541 0.153699 57.5615Q0.11539 57.3689 0.0865771 57.1747Q0.0577644 56.9805 0.0385174 56.785Q0.0192703 56.5896 0.00963514 56.3935Q0 56.1974 0 56.001L0 7.999Q0 7.80264 0.00963514 7.60651Q0.0192703 7.41038 0.0385174 7.21496Q0.0577644 7.01954 0.0865771 6.8253Q0.11539 6.63106 0.153699 6.43847Q0.192007 6.24588 0.23972 6.0554Q0.287433 5.86492 0.344434 5.67701Q0.401436 5.4891 0.467589 5.30422Q0.533742 5.11933 0.608888 4.93791Q0.684033 4.7565 0.76799 4.57899Q0.851946 4.40148 0.944512 4.2283Q1.03708 4.05512 1.13803 3.88669Q1.23898 3.71826 1.34807 3.55499Q1.45717 3.39172 1.57414 3.234Q1.69112 3.07628 1.81569 2.92449Q1.94026 2.7727 2.07213 2.6272Q2.204 2.4817 2.34285 2.34285Q2.4817 2.204 2.6272 2.07213Q2.7727 1.94026 2.92449 1.81569Q3.07628 1.69112 3.234 1.57414Q3.39172 1.45717 3.55499 1.34807Q3.71826 1.23898 3.88669 1.13803Q4.05512 1.03708 4.2283 0.944512Q4.40148 0.851946 4.57899 0.76799Q4.7565 0.684033 4.93791 0.608888Q5.11933 0.533742 5.30422 0.467589Q5.4891 0.401436 5.67701 0.344434Q5.86492 0.287433 6.0554 0.23972Q6.24588 0.192007 6.43847 0.153699Q6.63106 0.11539 6.8253 0.0865771Q7.01954 0.0577644 7.21496 0.0385174Q7.41038 0.0192703 7.60651 0.00963514Q7.80264 0 7.999 0L7.999 0Z" id="Rectangle" fill="#D3D3D3" fill-rule="evenodd" stroke="none" />
    <path d="M0 0L40.96 0L40.96 46.6097L0 46.6097L0 0Z" transform="translate(11.839844 8.6171875)" id="Background" fill="#D3D3D3" fill-rule="evenodd" stroke="none" />
    <g clip-path="url(#mask_1)">
      <path d="M4.19125 1.73634e-07C1.88725 1.73634e-07 0.03125 2.112 0.03125 4.73379L0.03125 39.691C0.03125 40.3101 0.44725 40.7834 0.99125 40.7834L4.86313 40.7834C4.86313 40.8927 4.83125 41.0383 4.83125 41.1476C4.83125 42.0943 5.08713 42.9683 5.50313 43.6965L4.19125 43.6965C3.64725 43.6965 3.23125 44.1699 3.23125 44.789C3.23125 45.408 3.64725 45.8814 4.19125 45.8814L32.9913 45.8814C35.2953 45.8814 37.1513 43.7694 37.1513 41.1476C37.1513 41.0383 37.1514 40.8927 37.1194 40.7834L39.3913 40.7834C39.9353 40.7834 40.3513 40.3101 40.3513 39.691L40.3513 38.7081C40.3513 31.9716 38.4633 17.6607 34.7513 10.56L35.2313 10.56C35.7753 10.56 36.1913 10.0866 36.1913 9.46759C36.1913 8.84855 35.7753 8.37517 35.2313 8.37517L29.7913 8.37517C29.2473 8.37517 28.8313 8.84855 28.8313 9.46759L28.8313 16.1316C28.8313 18.7534 30.6873 20.8654 32.9913 20.8654L36.1913 20.8654C37.5993 26.9465 38.4313 33.9377 38.4313 38.5986L36.4794 38.5986C35.7434 37.2877 34.4633 36.4138 32.9913 36.4138C31.5193 36.4138 30.2391 37.2877 29.5031 38.5986L27.5513 38.5986L27.5513 12.0166C27.5513 11.3975 27.1353 10.9241 26.5913 10.9241C26.0473 10.9241 25.6313 11.3975 25.6313 12.0166L25.6313 38.5986L12.4794 38.5986C11.7434 37.2877 10.4633 36.4138 8.99125 36.4138C7.51925 36.4138 6.23913 37.2877 5.50313 38.5986L1.95125 38.5986L1.95125 4.73379C1.95125 3.31366 2.94325 2.18483 4.19125 2.18483L19.2313 2.18483L19.2313 4.73379C19.2313 7.35559 21.0873 9.46759 23.3913 9.46759L26.4631 9.46759L26.5913 9.46759C26.9753 9.46759 27.3275 9.17599 27.4875 8.81185C27.5515 8.6662 27.5831 8.52083 27.5831 8.37517L27.5831 8.22937C27.5511 6.04455 26.7834 4.00523 25.4394 2.43944C23.9994 0.873647 22.1753 1.73634e-07 20.1913 1.73634e-07L4.19125 1.73634e-07L4.19125 1.73634e-07ZM21.1523 2.29517C22.2403 2.51365 23.2323 3.09598 24.0323 4.00633C24.8323 4.91667 25.3441 6.0455 25.5361 7.28357L23.3923 7.28357C22.1443 7.28357 21.1523 6.15474 21.1523 4.73461L21.1523 2.29517L21.1523 2.29517ZM30.7517 10.5596L32.448 10.5596C33.696 12.4531 34.784 15.3665 35.648 18.6801L32.9917 18.6801C31.7437 18.6801 30.7517 17.5513 30.7517 16.1312L30.7517 10.5596L30.7517 10.5596ZM6.75199 14.5654C6.20799 14.5654 5.79199 15.0388 5.79199 15.6578C5.79199 16.2769 6.20799 16.7503 6.75199 16.7503L20.832 16.7503C21.376 16.7503 21.792 16.2769 21.792 15.6578C21.792 15.0388 21.376 14.5654 20.832 14.5654L6.75199 14.5654L6.75199 14.5654ZM6.75199 20.0273C6.20799 20.0273 5.79199 20.5007 5.79199 21.1198C5.79199 21.7388 6.20799 22.2122 6.75199 22.2122L20.832 22.2122C21.376 22.2122 21.792 21.7388 21.792 21.1198C21.792 20.5007 21.376 20.0273 20.832 20.0273L6.75199 20.0273L6.75199 20.0273ZM6.75199 25.4902C6.20799 25.4902 5.79199 25.9636 5.79199 26.5826C5.79199 27.2017 6.20799 27.6751 6.75199 27.6751L15.712 27.6751C16.256 27.6751 16.672 27.2017 16.672 26.5826C16.672 25.9636 16.256 25.4902 15.712 25.4902L6.75199 25.4902L6.75199 25.4902ZM20.558 25.505C20.4795 25.5011 20.3999 25.5075 20.3199 25.5257C20.2559 25.5257 20.192 25.5625 20.128 25.5989C20.064 25.6353 20.032 25.6713 19.968 25.7077C19.904 25.7442 19.872 25.7807 19.808 25.8535C19.648 25.9992 19.5518 26.2905 19.5518 26.5818C19.5518 26.8731 19.6479 27.1643 19.8399 27.3464C20.0319 27.5648 20.2558 27.6742 20.5118 27.6742C20.7678 27.6742 21.0236 27.5648 21.1836 27.3464C21.3756 27.1279 21.4718 26.8731 21.4718 26.5818C21.4718 26.2905 21.3756 25.9993 21.1836 25.8173C21.0156 25.6261 20.7935 25.517 20.558 25.505L20.558 25.505ZM8.99171 38.5986C10.2397 38.5986 11.2317 39.7275 11.2317 41.1476C11.2317 42.5677 10.2397 43.6966 8.99171 43.6966C7.74371 43.6966 6.75171 42.5677 6.75171 41.1476C6.75171 39.7275 7.74371 38.5986 8.99171 38.5986L8.99171 38.5986ZM32.9917 38.5986C34.2397 38.5986 35.2317 39.7275 35.2317 41.1476C35.2317 42.5677 34.2397 43.6966 32.9917 43.6966C31.7437 43.6966 30.7517 42.5677 30.7517 41.1476C30.7517 39.7275 31.7437 38.5986 32.9917 38.5986L32.9917 38.5986ZM13.1205 40.7832L28.8323 40.7832C28.8323 40.8924 28.8005 41.0381 28.8005 41.1473C28.8005 42.0941 29.0563 42.968 29.4723 43.6963L12.4805 43.6963C12.8965 42.968 13.1523 42.0941 13.1523 41.1473C13.1523 41.0381 13.1525 40.8924 13.1205 40.7832L13.1205 40.7832ZM0.991875 43.6875C0.743875 43.6875 0.496 43.7881 0.32 43.9883C0.288 44.0248 0.223875 44.0976 0.191875 44.1704C0.159875 44.2432 0.127625 44.2796 0.095625 44.3525C0.063625 44.4253 0.063875 44.498 0.031875 44.5708C0.031875 44.6436 0 44.7163 0 44.7892C0 45.0805 0.096125 45.3716 0.288125 45.5537C0.480125 45.7722 0.704 45.8816 0.96 45.8816C1.216 45.8816 1.47188 45.7722 1.63188 45.5537C1.66388 45.5173 1.728 45.4445 1.76 45.3716C1.792 45.2988 1.82363 45.2624 1.85563 45.1896C1.88763 45.1167 1.888 45.0441 1.92 44.9712C1.92 44.8984 1.95188 44.8257 1.95188 44.7529C1.95188 44.6801 1.952 44.6074 1.92 44.5345C1.92 44.4981 1.88813 44.4253 1.88813 44.3525C1.85613 44.2796 1.82388 44.2432 1.79188 44.1704C1.75988 44.0976 1.72775 44.0612 1.66375 43.9883C1.48775 43.7881 1.23988 43.6875 0.991875 43.6875L0.991875 43.6875Z" transform="translate(12.128906 8.982666)" id="Shape" fill="#000000" fill-rule="evenodd" stroke="none" />
    </g>
  </g>
</svg>